# xmcd CD database file
#
# Track frame offsets:
#	150
#	21839
#	40888
#	60317
#	79681
#	101011
#	119973
#	142244
#
# Disc length: 2193 seconds
#
# Revision: 0
# Processed by: cddbd v1.5.2PL0 Copyright (c) Steve Scherf et al.
# Submitted via: CDex 1.51
#
DISCID=6f088f08
DTITLE=Orquestra Sueno Del Caribe - El corte perfecto
DYEAR=1900
DGENRE=Salsa
TTITLE0=VICTIMA DEL AMOR
TTITLE1=BEROBAMBOLEO
TTITLE2=QUE BONITO CUANDO ME DAS DE AMOR
TTITLE3=LO MATERIAL
TTITLE4=CUANDO HAY AMOR
TTITLE5=POCOS MENOS QUE NADA
TTITLE6=SUENO DE AMOR
TTITLE7=ELLA SE DEJA QUERER
EXTD=
EXTT0=
EXTT1=
EXTT2=
EXTT3=
EXTT4=
EXTT5=
EXTT6=
EXTT7=
PLAYORDER=
